HIERARCHY
ROOT Pelvis
{
	OFFSET 0.000000 0.941512 0.000000
	CHANNELS 6 Xposition Yposition Zposition Zrotation Yrotation Xrotation 
	JOINT Pelvis_L_Hip
	{
		OFFSET 0.000000 0.000000 0.000000
		CHANNELS 3 Zrotation Yrotation Xrotation
		JOINT L_Hip
		{
			OFFSET 0.062321 -0.080322 -0.016990
			CHANNELS 3 Zrotation Yrotation Xrotation
			JOINT L_Knee
			{
				OFFSET 0.093051 -0.381305 -0.029784
				CHANNELS 3 Zrotation Yrotation Xrotation
				JOINT L_Ankle
				{
					OFFSET -0.010371 -0.431000 -0.033614
					CHANNELS 3 Zrotation Yrotation Xrotation
					End Site #name: L_Foot
					{
						OFFSET 0.069299 -0.038670 0.119418
					}
				}
			}
		}
	}
	JOINT Pelvis_R_Hip
	{
		OFFSET 0.000000 0.000000 0.000000
		CHANNELS 3 Zrotation Yrotation Xrotation
		JOINT R_Hip
		{
			OFFSET -0.055334 -0.094904 -0.002373
			CHANNELS 3 Zrotation Yrotation Xrotation
			JOINT R_Knee
			{
				OFFSET -0.064207 -0.384370 -0.019592
				CHANNELS 3 Zrotation Yrotation Xrotation
				JOINT R_Ankle
				{
					OFFSET 0.025418 -0.419734 -0.065953
					CHANNELS 3 Zrotation Yrotation Xrotation
					End Site #name: R_Foot
					{
						OFFSET -0.057233 -0.039888 0.132134
					}
				}
			}
		}
	}
	JOINT Pelvis_Spine1
	{
		OFFSET 0.000000 0.000000 0.000000
		CHANNELS 3 Zrotation Yrotation Xrotation
		JOINT Spine1
		{
			OFFSET -0.005562 0.124093 -0.043360
			CHANNELS 3 Zrotation Yrotation Xrotation
			JOINT Spine2
			{
				OFFSET 0.012244 0.139499 0.029894
				CHANNELS 3 Zrotation Yrotation Xrotation
				JOINT Spine3
				{
					OFFSET -0.002556 0.056561 0.009225
					CHANNELS 3 Zrotation Yrotation Xrotation
					JOINT Spine3_Neck
					{
						OFFSET 0.000000 0.000000 0.000000
						CHANNELS 3 Zrotation Yrotation Xrotation
						JOINT Neck
						{
							OFFSET -0.005205 0.217920 -0.024551
							CHANNELS 3 Zrotation Yrotation Xrotation
							End Site #name: Head
							{
								OFFSET 0.002365 0.091850 0.046637
							}
						}
					}
					JOINT Spine3_L_Collar
					{
						OFFSET 0.000000 0.000000 0.000000
						CHANNELS 3 Zrotation Yrotation Xrotation
						JOINT L_Collar
						{
							OFFSET 0.072225 0.116603 -0.009480
							CHANNELS 3 Zrotation Yrotation Xrotation
							JOINT L_Shoulder
							{
								OFFSET 0.115937 -0.058643 -0.021018
								CHANNELS 3 Zrotation Yrotation Xrotation
								JOINT L_Elbow
								{
									OFFSET 0.021994 -0.254722 -0.024492
									CHANNELS 3 Zrotation Yrotation Xrotation
									End Site #name: L_Wrist
									{
										OFFSET 0.048810 -0.240214 0.103329
									}
								}
							}
						}
					}
					JOINT Spine3_R_Collar
					{
						OFFSET 0.000000 0.000000 0.000000
						CHANNELS 3 Zrotation Yrotation Xrotation
						JOINT R_Collar
						{
							OFFSET -0.073372 0.120704 -0.024611
							CHANNELS 3 Zrotation Yrotation Xrotation
							JOINT R_Shoulder
							{
								OFFSET -0.108089 -0.054969 -0.020504
								CHANNELS 3 Zrotation Yrotation Xrotation
								JOINT R_Elbow
								{
									OFFSET -0.033684 -0.260739 0.009889
									CHANNELS 3 Zrotation Yrotation Xrotation
									End Site #name: R_Wrist
									{
										OFFSET -0.067980 -0.232763 0.118463
									}
								}
							}
						}
					}
				}
			}
		}
	}
}
MOTION
Frames: 10
Frame Time: 0.041667
0.001730 0.955929 0.001264 -0.985062 -1.775134 1.534425 0.000000 0.000000 0.000000 -5.451183 -1.385595 -6.214982 11.086338 -1.618015 6.102354 -8.420238 -17.139613 4.810514 0.000000 0.000000 0.000000 3.019234 0.211801 -1.959092 -6.998731 0.599785 -4.048764 5.583951 11.293092 4.317050 0.000000 0.000000 0.000000 2.910797 0.565604 -10.705540 -3.002407 3.831935 39.146724 1.821222 1.157187 -37.372668 0.000000 0.000000 0.000000 -1.874259 0.676525 23.820755 0.000000 0.000000 0.000000 37.244529 -21.187650 -13.171027 -22.603782 -4.125635 -16.456354 7.140656 -14.879206 -75.913599 0.000000 0.000000 0.000000 -34.137307 17.338271 -8.403183 21.627070 5.071548 -8.521984 -8.517469 30.418442 -81.419432 
0.001878 0.955893 0.001283 -1.032500 -1.748898 1.576689 0.000000 0.000000 0.000000 -5.405538 -1.387812 -6.221043 11.086127 -1.608158 6.018605 -8.415702 -17.123362 4.810697 0.000000 0.000000 0.000000 3.104497 0.214564 -1.990449 -7.084586 0.609211 -4.059239 5.548131 11.297943 4.249222 0.000000 0.000000 0.000000 2.933111 0.557309 -10.654849 -2.924916 3.768648 38.986051 1.772664 1.075630 -37.184209 0.000000 0.000000 0.000000 -1.908917 0.707554 23.735782 0.000000 0.000000 0.000000 37.441478 -20.867154 -12.852402 -21.680590 -3.640598 -15.234021 10.443465 -9.131407 -75.989319 0.000000 0.000000 0.000000 -34.394424 17.154328 -8.200072 20.715110 4.549092 -7.536111 -12.381486 23.145485 -83.279850 
0.002108 0.955800 0.001560 -1.086459 -1.767216 1.569544 0.000000 0.000000 0.000000 -5.360091 -1.377630 -6.182674 11.098010 -1.600531 5.946578 -8.553442 -17.077159 5.030501 0.000000 0.000000 0.000000 3.196676 0.209775 -1.983623 -7.188521 0.621356 -4.062472 5.550159 11.349228 4.222296 0.000000 0.000000 0.000000 3.057192 0.534203 -10.582133 -3.066452 3.834614 38.842704 1.768713 1.129901 -36.915770 0.000000 0.000000 0.000000 -1.970389 0.748280 23.686768 0.000000 0.000000 0.000000 37.992744 -20.579003 -12.552414 -21.590244 -3.417587 -14.568212 12.965401 -4.446996 -75.299804 0.000000 0.000000 0.000000 -35.094685 17.190485 -8.206566 21.407644 4.294077 -6.496390 -15.596759 15.401364 -83.602016 
0.002464 0.955832 0.001796 -1.069765 -1.781183 1.573240 0.000000 0.000000 0.000000 -5.410512 -1.381661 -6.200425 11.128586 -1.611242 6.001041 -8.599217 -17.184490 5.049923 0.000000 0.000000 0.000000 3.136714 0.215202 -2.000458 -7.161611 0.620537 -4.042351 5.528802 11.421360 4.140832 0.000000 0.000000 0.000000 3.099694 0.538409 -10.666945 -3.217296 3.933230 38.972965 1.888802 1.222781 -36.810060 0.000000 0.000000 0.000000 -2.051944 0.804810 23.633020 0.000000 0.000000 0.000000 38.048315 -19.842236 -11.763825 -23.127886 -3.846722 -15.457206 14.037870 -2.089619 -74.275613 0.000000 0.000000 0.000000 -35.068891 16.412209 -7.437537 22.127019 4.592671 -6.987460 -16.481237 12.564556 -82.826029 
0.002688 0.955650 0.001848 -1.048897 -1.792107 1.499988 0.000000 0.000000 0.000000 -5.413533 -1.363615 -6.135507 11.057907 -1.607230 6.043909 -8.493090 -17.082869 4.941618 0.000000 0.000000 0.000000 3.095646 0.205524 -1.940850 -7.141298 0.621962 -4.009219 5.532008 11.334122 4.195891 0.000000 0.000000 0.000000 3.047878 0.538201 -10.608057 -3.175637 3.932900 39.178233 1.873481 1.202447 -36.999826 0.000000 0.000000 0.000000 -1.826053 0.643953 23.413983 0.000000 0.000000 0.000000 37.251517 -19.854547 -11.774426 -22.476880 -3.737132 -15.289718 12.697671 -4.628238 -74.738308 0.000000 0.000000 0.000000 -34.187664 15.876571 -6.972265 22.145128 5.000018 -8.068478 -15.327744 15.069029 -82.476858 
0.002929 0.955580 0.002301 -1.005096 -1.799234 1.447132 0.000000 0.000000 0.000000 -5.470785 -1.344523 -6.072427 11.047824 -1.605424 6.039074 -8.520848 -17.093862 4.977170 0.000000 0.000000 0.000000 3.013773 0.199331 -1.891247 -7.124403 0.623872 -3.977955 5.575425 11.353242 4.265289 0.000000 0.000000 0.000000 3.089158 0.527670 -10.559669 -3.130800 3.913875 39.228004 1.731230 1.117895 -37.126865 0.000000 0.000000 0.000000 -1.789983 0.619891 23.328239 0.000000 0.000000 0.000000 37.569479 -20.780267 -12.755568 -23.670403 -3.908967 -15.433305 10.371972 -8.710013 -75.235360 0.000000 0.000000 0.000000 -34.375989 16.859331 -7.919140 23.113761 5.341280 -8.508054 -12.691174 20.987335 -82.203757 
0.003190 0.955316 0.002344 -1.000660 -1.794461 1.380877 0.000000 0.000000 0.000000 -5.520121 -1.321654 -5.995848 11.120073 -1.614701 6.030432 -8.593314 -17.291428 4.993482 0.000000 0.000000 0.000000 2.971649 0.190332 -1.834746 -7.059058 0.618321 -3.958026 5.522089 11.355516 4.165554 0.000000 0.000000 0.000000 3.072113 0.525403 -10.517783 -2.971410 3.841137 39.382240 1.672588 1.116960 -37.348646 0.000000 0.000000 0.000000 -1.972139 0.744702 23.329341 0.000000 0.000000 0.000000 38.593042 -21.920991 -13.991800 -26.075122 -4.323468 -15.891535 6.610314 -14.831493 -74.770379 0.000000 0.000000 0.000000 -35.188920 18.610997 -9.621579 24.237043 5.600958 -8.644697 -8.047866 29.855143 -80.257360 
0.003175 0.954942 0.002130 -0.963500 -1.805076 1.289546 0.000000 0.000000 0.000000 -5.616652 -1.318367 -5.989081 11.190555 -1.637382 6.147424 -8.538927 -17.328968 4.898342 0.000000 0.000000 0.000000 2.892612 0.183795 -1.782864 -6.960384 0.611537 -3.912688 5.520272 11.320541 4.181586 0.000000 0.000000 0.000000 2.950158 0.535100 -10.470100 -2.849566 3.810294 39.737665 1.551707 1.152502 -37.688982 0.000000 0.000000 0.000000 -1.979923 0.738577 23.059356 0.000000 0.000000 0.000000 38.831650 -23.036660 -15.179680 -26.701949 -4.671562 -16.663293 1.724329 -21.888774 -72.404237 0.000000 0.000000 0.000000 -35.721444 19.951458 -10.970783 25.328730 6.032201 -9.197752 -1.014360 38.915413 -74.713983 
0.002950 0.955060 0.002295 -0.963107 -1.833117 1.310706 0.000000 0.000000 0.000000 -5.636652 -1.324675 -6.012678 11.224691 -1.651133 6.222612 -8.486799 -17.422935 4.782303 0.000000 0.000000 0.000000 2.940882 0.193934 -1.846169 -6.978328 0.632064 -3.761989 5.358581 11.247619 3.921670 0.000000 0.000000 0.000000 2.803231 0.592784 -10.827335 -2.676483 3.798615 40.543021 1.520921 1.191625 -38.049023 0.000000 0.000000 0.000000 -1.998581 0.745275 22.703019 0.000000 0.000000 0.000000 39.275996 -23.729631 -15.940635 -27.582405 -4.546127 -15.993004 1.079829 -22.746771 -72.176951 0.000000 0.000000 0.000000 -36.172750 21.041278 -12.079258 26.156749 5.697839 -7.941393 -0.604839 39.415191 -74.470614 
0.003036 0.955080 0.002189 -0.987152 -1.843022 1.223254 0.000000 0.000000 0.000000 -5.625451 -1.298904 -5.920229 11.235238 -1.650470 6.205069 -8.517054 -17.346534 4.859960 0.000000 0.000000 0.000000 2.953272 0.167971 -1.711898 -7.004433 0.622699 -3.866798 5.494879 11.417205 4.077950 0.000000 0.000000 0.000000 2.863081 0.581243 -10.785876 -2.866996 3.946342 40.914001 1.666468 1.325024 -38.099207 0.000000 0.000000 0.000000 -2.085728 0.800527 22.397078 0.000000 0.000000 0.000000 38.497504 -22.999649 -15.081892 -26.899028 -4.392585 -15.745370 2.488107 -20.833128 -72.773547 0.000000 0.000000 0.000000 -35.561179 20.269519 -11.307054 25.540535 5.267428 -7.103249 -3.871821 35.891729 -77.307802 
